<svg width="286" height="50" viewBox="0 0 286 50" fill="none" xmlns="http://www.w3.org/2000/svg">
<path d="M36.6198 27.9404C36.6198 18.5942 40.327 14.2041 44.8889 14.2041C46.1534 14.1973 47.4077 14.4318 48.5844 14.8948L48.8693 10.212C47.8034 9.85989 46.6865 9.68714 45.564 9.70076C42.0285 9.70076 38.2549 12.3232 36.612 15.9719V10.1573H31.7691V38.8865H36.6198V27.9404Z" fill="black"/>
<path fill-rule="evenodd" clip-rule="evenodd" d="M54.8321 25.4507H77.5205V25.4312C77.5751 24.92 77.6336 23.8937 77.6336 23.2107C77.6336 15.8001 72.3889 9.70074 63.8973 9.70074C55.2341 9.70074 49.9893 16.3699 49.9893 24.5297C49.9893 32.6896 55.4019 39.3587 64.0105 39.3587C70.6211 39.3587 75.4093 36.0925 76.8336 30.5043L72.2757 29.4233C71.425 33.0135 68.4006 35.0661 64.0105 35.0661C58.8242 35.0661 55.1755 31.2496 54.8321 25.4507ZM63.9168 13.767C68.9899 13.767 72.0454 17.0177 72.502 21.4078H55.1365C56.1121 16.6196 59.4135 13.767 63.9168 13.767Z" fill="black"/>
<path fill-rule="evenodd" clip-rule="evenodd" d="M109.508 25.4507H86.8198C87.1632 31.2496 90.8119 35.0661 96.0099 35.0661C100.4 35.0661 103.424 33.0135 104.275 29.4233L108.833 30.5043C107.397 36.0925 102.609 39.3587 96.0099 39.3587C87.3895 39.3587 81.9614 32.674 81.9614 24.5297C81.9614 16.3855 87.2217 9.70074 95.885 9.70074C104.377 9.70074 109.621 15.8001 109.621 23.2107C109.621 23.8937 109.563 24.92 109.508 25.4312V25.4507ZM104.49 21.4078C104.033 17.0177 100.958 13.767 95.885 13.767C91.3817 13.767 88.0803 16.6196 87.1047 21.4078H104.49Z" fill="black"/>
<path d="M119.248 10.1573H114.402V38.8865H119.248V26.2858C119.248 18.7074 122.667 14.0909 128.025 14.0909C132.072 14.0909 134.522 16.8811 134.522 20.7601V38.8827H139.369V19.8469C139.369 13.7475 135.092 9.70074 129.11 9.70074C124.712 9.70074 121.243 12.1358 119.248 15.5543V10.1573Z" fill="black"/>
<path fill-rule="evenodd" clip-rule="evenodd" d="M9.02226 33.2983H16.7255L16.706 33.2827C22.4698 33.2827 26.4619 35.6788 26.4619 40.9782C26.4619 46.7342 21.104 49.7 13.2368 49.7C5.08476 49.7 0.171686 46.8045 0.0116873 41.505C-0.0458931 40.5081 0.109758 39.5103 0.468269 38.5783L5.00282 38.7656C4.68721 39.6302 4.59985 40.5616 4.74916 41.4699C5.04575 44.0689 7.65643 45.6298 13.2407 45.6298C18.7118 45.6298 21.7323 44.0689 21.7323 41.3372C21.7323 38.2583 19.4533 37.2319 16.0348 37.2319H9.94321C8.97151 37.2345 8.00059 37.1772 7.03594 37.0602C5.6319 36.8873 4.28481 36.4005 3.09457 35.6359C2.36425 35.1541 1.77096 34.4916 1.37231 33.7128C0.973667 32.9339 0.783229 32.0653 0.81948 31.1911C0.81948 28.6819 2.47018 26.8009 4.69453 25.7746C3.10071 24.0362 2.24198 21.7481 2.29848 19.3903C2.29848 13.5758 6.96961 9.70074 13.1822 9.70074H26.3527V13.8373H22.2552C23.4879 15.4209 24.1308 17.3843 24.0737 19.3903C24.0737 25.318 19.4572 29.0799 13.1861 29.0799C11.3433 29.1025 9.51691 28.7327 7.82814 27.995C6.17353 28.7404 5.48671 29.7082 5.48671 30.9062C5.48671 32.674 7.14132 33.2983 9.02226 33.2983ZM19.3401 19.3903C19.3401 15.8001 16.4914 13.6343 13.1822 13.6343H13.19C9.88468 13.6343 7.03594 15.8001 7.03594 19.3903C7.03594 23.039 9.87297 25.1502 13.1822 25.1502C16.4914 25.1502 19.3401 23.039 19.3401 19.3903Z" fill="black"/>
<path d="M273.949 10.4714C277.11 10.4714 279.643 11.3043 281.546 12.97C283.484 14.6017 284.657 16.8114 285.065 19.5989H280.629C280.425 17.9332 279.728 16.5734 278.538 15.5196C277.382 14.4318 275.818 13.8879 273.847 13.8879C272.181 13.8879 270.872 14.2958 269.92 15.1117C269.002 15.8935 268.544 16.9644 268.544 18.3241C268.544 19.344 268.849 20.1768 269.461 20.8227C270.107 21.4346 270.889 21.9106 271.807 22.2505C272.759 22.5565 274.051 22.8964 275.682 23.2703C277.756 23.7463 279.422 24.2392 280.68 24.7491C281.971 25.225 283.059 26.0069 283.943 27.0947C284.861 28.1826 285.32 29.6443 285.32 31.48C285.32 33.7577 284.453 35.6104 282.719 37.0381C281.02 38.4659 278.742 39.1798 275.886 39.1798C272.555 39.1798 269.835 38.3809 267.728 36.7832C265.62 35.1854 264.379 32.9588 264.005 30.1032H268.493C268.662 31.803 269.393 33.1797 270.685 34.2336C272.011 35.2874 273.745 35.8143 275.886 35.8143C277.484 35.8143 278.725 35.4064 279.609 34.5905C280.527 33.7747 280.986 32.7038 280.986 31.378C280.986 30.2902 280.663 29.4234 280.017 28.7775C279.371 28.1316 278.572 27.6386 277.62 27.2987C276.668 26.9588 275.359 26.6018 273.694 26.2279C271.62 25.7519 269.954 25.276 268.696 24.8001C267.473 24.3242 266.419 23.5763 265.535 22.5565C264.685 21.5026 264.26 20.0919 264.26 18.3241C264.26 15.9785 265.127 14.0918 266.861 12.6641C268.595 11.2023 270.957 10.4714 273.949 10.4714Z" fill="black"/>
<path d="M248.132 10.3694C251.395 10.3694 254.013 11.4232 255.984 13.5309C257.99 15.6046 258.993 18.6131 258.993 22.5565V38.8228H254.353V22.9644C254.353 20.2108 253.673 18.1032 252.313 16.6414C250.987 15.1796 249.151 14.4488 246.806 14.4488C244.358 14.4488 242.387 15.2646 240.891 16.8964C239.429 18.4941 238.698 20.8567 238.698 23.9842V38.8228H234.058V22.9644C234.058 20.2108 233.378 18.1032 232.018 16.6414C230.658 15.1796 228.823 14.4488 226.511 14.4488C224.03 14.4488 222.041 15.2646 220.545 16.8964C219.083 18.4941 218.352 20.8567 218.352 23.9842V38.8228H213.712V10.8283H218.352V17.2023C219.032 14.9927 220.239 13.3099 221.973 12.1541C223.741 10.9643 225.763 10.3694 228.041 10.3694C230.421 10.3694 232.477 10.9813 234.211 12.2051C235.979 13.3949 237.236 15.1626 237.984 17.5083C238.766 15.2306 240.075 13.4799 241.911 12.2561C243.746 10.9983 245.82 10.3694 248.132 10.3694Z" fill="black"/>
<path d="M199.802 16.4884C200.72 14.5507 202.063 13.055 203.831 12.0012C205.598 10.9133 207.706 10.3694 210.154 10.3694V15.4176H208.726C206.108 15.4176 203.967 16.0975 202.301 17.4573C200.635 18.7831 199.802 20.9927 199.802 24.0862V38.8228H195.162V10.8283H199.802V16.4884Z" fill="black"/>
<path d="M176.113 10.4714C178.798 10.4714 181.195 11.0493 183.302 12.2051C185.444 13.3609 187.11 15.0267 188.3 17.2023C189.523 19.378 190.135 21.9276 190.135 24.8511C190.135 27.7746 189.523 30.3242 188.3 32.4999C187.11 34.6415 185.444 36.2902 183.302 37.4461C181.195 38.6019 178.798 39.1798 176.113 39.1798C173.427 39.1798 171.013 38.6019 168.872 37.4461C166.764 36.2902 165.098 34.6415 163.875 32.4999C162.651 30.3242 162.039 27.7746 162.039 24.8511C162.039 21.9276 162.651 19.378 163.875 17.2023C165.098 15.0267 166.764 13.3609 168.872 12.2051C171.013 11.0493 173.427 10.4714 176.113 10.4714ZM176.113 14.5508C174.447 14.5508 172.9 14.9247 171.472 15.6726C170.079 16.4204 168.94 17.5763 168.056 19.14C167.206 20.6698 166.781 22.5735 166.781 24.8511C166.781 27.0947 167.206 28.9984 168.056 30.5622C168.94 32.0919 170.079 33.2307 171.472 33.9786C172.9 34.7265 174.447 35.1004 176.113 35.1004C177.778 35.1004 179.308 34.7265 180.702 33.9786C182.13 33.2307 183.268 32.0919 184.118 30.5622C185.002 28.9984 185.444 27.0947 185.444 24.8511C185.444 22.5735 185.002 20.6698 184.118 19.14C183.268 17.5763 182.13 16.4204 180.702 15.6726C179.308 14.9247 177.778 14.5508 176.113 14.5508Z" fill="black"/>
<path d="M159.398 4.19943C156.916 4.16544 155.182 4.59037 154.196 5.47422C153.245 6.35808 152.769 7.88784 152.769 10.0635V10.8284H159.398V14.9077H152.769V38.8229H148.128V14.9077H144.1V10.8284H148.128V9.70654C148.128 3.00962 151.885 -0.185862 159.398 0.120087V4.19943Z" fill="black"/>
<path d="M268.583 30.0035L268.592 30.0934C268.759 31.7667 269.477 33.1185 270.747 34.1549C272.051 35.1913 273.762 35.7144 275.887 35.7144V35.8141L275.489 35.8082C273.66 35.7505 272.143 35.2897 270.938 34.4254L270.686 34.234C269.394 33.1801 268.662 31.8028 268.492 30.1031H264.005C264.379 32.9585 265.62 35.1851 267.728 36.7828C269.703 38.2806 272.217 39.0768 275.269 39.1705L275.887 39.1803C278.742 39.1802 281.019 38.4654 282.719 37.0377C284.344 35.6991 285.208 33.9875 285.31 31.9019L285.319 31.4801C285.319 29.6444 284.861 28.1822 283.943 27.0943C283.06 26.0065 281.971 25.2245 280.68 24.7486C279.579 24.3024 278.166 23.87 276.44 23.4498L275.683 23.2701C274.051 22.8962 272.758 22.5565 271.807 22.2506C270.889 21.9106 270.107 21.4347 269.461 20.8228C268.926 20.2577 268.625 19.5492 268.558 18.6978L268.544 18.3238C268.544 17.049 268.947 16.0282 269.754 15.2613L269.92 15.1119C270.872 14.296 272.181 13.8883 273.847 13.8883L274.212 13.8941C276.012 13.9579 277.455 14.4994 278.538 15.5191C279.654 16.5072 280.336 17.7646 280.585 19.2906L280.629 19.5992H285.064C284.657 16.8119 283.484 14.602 281.547 12.9703C279.643 11.3046 277.11 10.4713 273.948 10.4713C270.957 10.4713 268.594 11.202 266.86 12.6637C265.127 14.0914 264.26 15.9784 264.26 18.3238C264.26 20.0915 264.685 21.5024 265.535 22.5562C266.419 23.5761 267.473 24.3245 268.696 24.8004C269.954 25.2763 271.62 25.7522 273.693 26.2281C275.359 26.6021 276.668 26.9585 277.62 27.2984C278.572 27.6384 279.371 28.132 280.017 28.7779C280.662 29.4238 280.985 30.2908 280.985 31.3785L280.98 31.6236C280.927 32.8367 280.469 33.8255 279.608 34.5904C278.725 35.4061 277.484 35.814 275.887 35.8141V35.7144C277.468 35.7144 278.681 35.311 279.541 34.5172L279.542 34.5162C280.437 33.721 280.886 32.6781 280.886 31.3785C280.886 30.3784 280.608 29.5774 280.06 28.9674L279.946 28.8482C279.391 28.2932 278.72 27.8523 277.932 27.526L277.586 27.3932C276.876 27.1397 275.966 26.8756 274.853 26.6021L273.672 26.3258H273.671C271.855 25.9089 270.349 25.491 269.154 25.0728L268.661 24.8932H268.66C267.421 24.4112 266.353 23.6534 265.459 22.6217L265.457 22.6197C264.589 21.5433 264.16 20.1073 264.16 18.3238C264.16 15.95 265.039 14.0342 266.797 12.5865C268.554 11.1058 270.941 10.3717 273.948 10.3717C277.127 10.3717 279.684 11.2089 281.61 12.8932C283.447 14.4395 284.602 16.499 285.078 19.065L285.164 19.5846L285.181 19.6988H280.54L280.529 19.6109C280.341 18.0708 279.726 16.7996 278.686 15.7926L278.472 15.5943L278.47 15.5924C277.337 14.526 275.799 13.9879 273.847 13.9879C272.197 13.9879 270.914 14.3914 269.985 15.1871V15.1881C269.093 15.9483 268.644 16.9893 268.644 18.3238L268.657 18.69C268.723 19.5215 269.017 20.2071 269.534 20.7535H269.533C270.167 21.3527 270.934 21.8199 271.837 22.1549C272.548 22.3834 273.451 22.6317 274.546 22.899L275.705 23.1725C277.779 23.6484 279.449 24.1428 280.713 24.6549H280.714C282.022 25.1368 283.124 25.9295 284.019 27.0299C284.956 28.1404 285.42 29.6277 285.42 31.4801L285.409 31.9078C285.306 34.0206 284.43 35.7583 282.782 37.1148C281.06 38.5611 278.758 39.2798 275.887 39.2799C272.748 39.2799 270.141 38.5741 268.073 37.1559L267.667 36.8629C265.669 35.3485 264.444 33.2747 263.987 30.649L263.906 30.1158L263.892 30.0035H268.583Z" fill="black"/>
<path d="M258.993 22.5562C258.993 18.613 257.99 15.6045 255.984 13.5309C254.136 11.555 251.72 10.505 248.736 10.3814L248.132 10.3697C245.82 10.3697 243.747 10.9987 241.911 12.2564C240.075 13.4802 238.766 15.2308 237.984 17.5084C237.283 15.3093 236.134 13.6183 234.536 12.4352L234.211 12.2047C232.586 11.0575 230.676 10.4483 228.483 10.3766L228.041 10.3697C225.763 10.3697 223.74 10.9641 221.973 12.1539C220.239 13.3097 219.032 14.9931 218.353 17.2027V10.8287H213.712V38.8228H218.353V23.984C218.353 20.8566 219.083 18.4938 220.545 16.8961C222.041 15.2645 224.029 14.4489 226.511 14.4488L226.939 14.4576C229.051 14.5434 230.744 15.2709 232.019 16.6412C233.378 18.103 234.058 20.2109 234.058 22.9644V38.8228H238.698V23.984C238.698 20.8566 239.429 18.4938 240.891 16.8961C242.386 15.2644 244.358 14.4489 246.806 14.4488L247.239 14.4576C249.379 14.5432 251.07 15.2709 252.312 16.6412C253.672 18.103 254.353 20.2109 254.353 22.9644V38.8228H258.993V22.5562ZM218.452 16.5973C219.163 14.649 220.317 13.1379 221.917 12.0709C223.702 10.8692 225.745 10.2691 228.041 10.2691C230.439 10.2692 232.516 10.8865 234.269 12.1236H234.268C235.987 13.2811 237.225 14.9775 237.987 17.2057C238.785 15.0405 240.073 13.3605 241.855 12.1725C243.708 10.9035 245.801 10.2691 248.132 10.2691C251.418 10.2692 254.064 11.3316 256.057 13.4615C258.086 15.5598 259.093 18.5969 259.093 22.5562V38.9225H254.253V22.9644C254.253 20.3977 253.658 18.4096 252.482 16.9869L252.24 16.7096L252.239 16.7086C250.936 15.2717 249.129 14.5484 246.806 14.5484C244.383 14.5485 242.439 15.355 240.965 16.9635C239.526 18.536 238.798 20.8706 238.798 23.984V38.9225H233.958V22.9644C233.958 20.3976 233.363 18.4097 232.188 16.9869L231.945 16.7096C230.607 15.2714 228.799 14.5484 226.511 14.5484C224.054 14.5485 222.093 15.3554 220.619 16.9635C219.18 18.536 218.452 20.8706 218.452 23.984V38.9225H213.612V10.7281H218.452V16.5973Z" fill="black"/>
<path d="M195.162 10.8287V38.8228H199.802V24.0865C199.802 21.1865 200.534 19.0629 201.998 17.7164L202.301 17.4576C203.966 16.0979 206.108 15.4176 208.726 15.4176H210.153V10.3697C207.706 10.3698 205.598 10.9138 203.83 12.0016L203.504 12.2037C201.896 13.2435 200.662 14.6723 199.802 16.4889V10.8287H195.162ZM199.902 16.0621C200.82 14.2925 202.112 12.9093 203.778 11.9156L204.117 11.7164C205.831 10.7507 207.845 10.2692 210.153 10.2691H210.254V15.5172H208.726C206.126 15.5172 204.008 16.1926 202.364 17.5348L202.363 17.5357C200.731 18.8351 199.902 21.0091 199.902 24.0865V38.9225H195.062V10.7281H199.902V16.0621Z" fill="black"/>
<path d="M190.136 24.8512C190.136 21.9278 189.523 19.3783 188.3 17.2027C187.184 15.163 185.65 13.5707 183.698 12.4273L183.303 12.2047C181.195 11.0489 178.798 10.4713 176.112 10.4713C173.427 10.4713 171.014 11.0491 168.872 12.2047C166.764 13.3605 165.098 15.0271 163.874 17.2027L163.652 17.6148C162.577 19.6983 162.039 22.1104 162.039 24.8512L162.046 25.3951C162.118 28.0918 162.727 30.4601 163.874 32.4996C165.098 34.6413 166.764 36.2901 168.872 37.4459C170.88 38.5294 173.126 39.1057 175.612 39.1734L176.112 39.1803C178.63 39.1803 180.894 38.6716 182.903 37.6559L183.303 37.4459C185.31 36.3624 186.9 34.8459 188.071 32.8961L188.3 32.4996C189.447 30.4601 190.056 28.0919 190.128 25.3951L190.136 24.8512ZM185.344 24.8512C185.344 22.5861 184.904 20.7008 184.031 19.19L184.03 19.1881C183.241 17.7365 182.203 16.6428 180.916 15.9039L180.655 15.7613L180.654 15.7603C179.276 15.0208 177.762 14.651 176.112 14.651C174.462 14.651 172.931 15.0212 171.519 15.7613L171.518 15.7603C170.144 16.498 169.018 17.6394 168.143 19.1881C167.303 20.6992 166.881 22.5855 166.881 24.8512L166.886 25.2652C166.935 27.3157 167.356 29.0635 168.143 30.5123C169.018 32.0277 170.144 33.1522 171.52 33.8902H171.519C172.931 34.6303 174.462 35.0005 176.112 35.0006V35.1002C174.447 35.1002 172.9 34.7268 171.473 33.9791C170.079 33.2312 168.94 32.0919 168.056 30.5621C167.259 29.0962 166.836 27.3315 166.786 25.2682L166.781 24.8512C166.781 22.5736 167.206 20.6699 168.056 19.1402C168.94 17.5765 170.079 16.4203 171.473 15.6725C172.9 14.9247 174.447 14.5504 176.112 14.5504C177.778 14.5504 179.308 14.9246 180.702 15.6725C182.13 16.4203 183.268 17.5766 184.118 19.1402C185.002 20.67 185.444 22.5736 185.444 24.8512L185.438 25.2682C185.387 27.3316 184.947 29.0962 184.118 30.5621C183.268 32.0918 182.13 33.2312 180.702 33.9791C179.308 34.727 177.778 35.1002 176.112 35.1002V35.0006C177.762 35.0006 179.276 34.6299 180.654 33.8902H180.655L180.916 33.7467C182.204 33.0095 183.243 31.9329 184.031 30.5133L184.189 30.2193C184.958 28.7305 185.344 26.9425 185.344 24.8512ZM190.229 25.398C190.161 27.9279 189.622 30.1737 188.61 32.1334L188.387 32.5484C187.188 34.7065 185.508 36.3679 183.35 37.5328C181.226 38.6975 178.813 39.2799 176.112 39.2799C173.581 39.2798 171.287 38.7689 169.232 37.7457L168.824 37.5338H168.823C166.832 36.4417 165.232 34.9122 164.024 32.9478L163.788 32.5494L163.787 32.5484C162.554 30.3555 161.938 27.7887 161.938 24.8512C161.938 21.9134 162.554 19.3459 163.787 17.1529C165.02 14.9617 166.7 13.2819 168.824 12.1168C170.982 10.9524 173.412 10.3717 176.112 10.3717C178.812 10.3717 181.225 10.9526 183.349 12.1168H183.35C185.508 13.2817 187.188 14.9613 188.387 17.1529C189.62 19.3459 190.235 21.9134 190.235 24.8512L190.229 25.398Z" fill="black"/>
<path d="M159.397 0.119716C151.885 -0.186189 148.128 3.00975 148.128 9.70663V10.8287H144.1V14.9078H148.128V38.8228H152.769V14.9078H159.397V10.8287H152.769V10.0631C152.769 7.88769 153.245 6.35802 154.196 5.47421C155.182 4.59037 156.916 4.16581 159.397 4.19979V0.119716ZM159.498 4.30038L159.396 4.2994C156.922 4.2655 155.22 4.68976 154.264 5.54647L154.265 5.54745C153.343 6.40287 152.868 7.89754 152.868 10.0631V10.7281H159.498V15.0074H152.868V38.9225H148.028V15.0074H144V10.7281H148.028V9.70663C148.028 6.34005 148.973 3.83442 150.881 2.21151C152.786 0.590784 155.633 -0.133322 159.401 0.0201063L159.498 0.0240126V4.30038Z" fill="black"/>
</svg>
